<svg xmlns="http://www.w3.org/2000/svg" viewBox="0 0 16 16">
 <defs>
  <style id="current-color-scheme" type="text/css">
   .ColorScheme-Text { color:#dfdfdf; } .ColorScheme-Highlight { color:#4285f4; } .ColorScheme-NeutralText { color:#ff9800; } .ColorScheme-PositiveText { color:#4caf50; } .ColorScheme-NegativeText { color:#f44336; }
  </style>
 </defs>
 <g fill="#dfdfdf">
  <path fill-opacity=".3" d="m16 3.572c0-.759-.615-1.374-1.374-1.374h-13.252c-.759 0-1.374.615-1.374 1.374v8.858c0 .758.615 1.373 1.374 1.373h13.252c.759 0 1.374-.615 1.374-1.373z"/>
  <path fill-opacity=".5" d="m16 4.883c0-.365-.145-.714-.402-.972-.258-.257-.607-.402-.972-.402h-7.027c-.338 0-.664-.125-.916-.351l-.682-.611c-.235-.21-.535-.333-.849-.349h9.474c.759 0 1.374.615 1.374 1.374z"/>
  <path d="m7.4 8.113v-2.207c0-.331.269-.599.6-.599s.599.268.599.599v2.207h2.208c.331 0 .599.269.599.6s-.268.599-.599.599h-2.208v2.208c0 .331-.268.599-.599.599s-.6-.268-.6-.599v-2.208h-2.207c-.331 0-.599-.268-.599-.599s.268-.6.599-.6z"/>
 </g>
</svg>
